name ../AP_Laxity/ap_75.mot
datacolumns   7
datarows 50
range   14.00000000 14.49000000
cursor 1.0 1.0 0.0
keys m_key
wrap
enforce_loops no
enforce_constraints no
calc_derivatives -1.000000
event_color 0.000000 0.000000 0.000000
endheader
            time femur_r_force_vx femur_r_force_vy femur_r_force_vz femur_r_force_px femur_r_force_py femur_r_force_pz 
     14.00000000      -0.57493020       2.14566871       0.00000000      -0.06780825      -0.46560544       0.00000000 
     14.01000000      -0.55606287       2.07525488       0.00000000      -0.06780825      -0.46560544       0.00000000 
     14.02000000      -0.53750351       2.00599041       0.00000000      -0.06780825      -0.46560544       0.00000000 
     14.03000000      -0.51925258       1.93787702       0.00000000      -0.06780825      -0.46560544       0.00000000 
     14.04000000      -0.50131054       1.87091642       0.00000000      -0.06780825      -0.46560544       0.00000000 
     14.05000000      -0.48367784       1.80511026       0.00000000      -0.06780825      -0.46560544       0.00000000 
     14.06000000      -0.46635490       1.74046018       0.00000000      -0.06780825      -0.46560544       0.00000000 
     14.07000000      -0.44934216       1.67696779       0.00000000      -0.06780825      -0.46560544       0.00000000 
     14.08000000      -0.43264005       1.61463466       0.00000000      -0.06780825      -0.46560544       0.00000000 
     14.09000000      -0.41624898       1.55346236       0.00000000      -0.06780825      -0.46560544       0.00000000 
     14.10000000      -0.40016936       1.49345239       0.00000000      -0.06780825      -0.46560544       0.00000000 
     14.11000000      -0.38440159       1.43460626       0.00000000      -0.06780825      -0.46560544       0.00000000 
     14.12000000      -0.36894605       1.37692542       0.00000000      -0.06780825      -0.46560544       0.00000000 
     14.13000000      -0.35380314       1.32041130       0.00000000      -0.06780825      -0.46560544       0.00000000 
     14.14000000      -0.33897323       1.26506533       0.00000000      -0.06780825      -0.46560544       0.00000000 
     14.15000000      -0.32445669       1.21088886       0.00000000      -0.06780825      -0.46560544       0.00000000 
     14.16000000      -0.31025388       1.15788325       0.00000000      -0.06780825      -0.46560544       0.00000000 
     14.17000000      -0.29636515       1.10604981       0.00000000      -0.06780825      -0.46560544       0.00000000 
     14.18000000      -0.28279086       1.05538984       0.00000000      -0.06780825      -0.46560544       0.00000000 
     14.19000000      -0.26953132       1.00590459       0.00000000      -0.06780825      -0.46560544       0.00000000 
     14.20000000      -0.25658689       0.95759530       0.00000000      -0.06780825      -0.46560544       0.00000000 
     14.21000000      -0.24395787       0.91046317       0.00000000      -0.06780825      -0.46560544       0.00000000 
     14.22000000      -0.23164458       0.86450936       0.00000000      -0.06780825      -0.46560544       0.00000000 
     14.23000000      -0.21964734       0.81973502       0.00000000      -0.06780825      -0.46560544       0.00000000 
     14.24000000      -0.20796643       0.77614127       0.00000000      -0.06780825      -0.46560544       0.00000000 
     14.25000000      -0.19660214       0.73372919       0.00000000      -0.06780825      -0.46560544       0.00000000 
     14.26000000      -0.18555477       0.69249982       0.00000000      -0.06780825      -0.46560544       0.00000000 
     14.27000000      -0.17482458       0.65245421       0.00000000      -0.06780825      -0.46560544       0.00000000 
     14.28000000      -0.16441184       0.61359334       0.00000000      -0.06780825      -0.46560544       0.00000000 
     14.29000000      -0.15431681       0.57591818       0.00000000      -0.06780825      -0.46560544       0.00000000 
     14.30000000      -0.14453974       0.53942967       0.00000000      -0.06780825      -0.46560544       0.00000000 
     14.31000000      -0.13508088       0.50412871       0.00000000      -0.06780825      -0.46560544       0.00000000 
     14.32000000      -0.12594046       0.47001619       0.00000000      -0.06780825      -0.46560544       0.00000000 
     14.33000000      -0.11711870       0.43709294       0.00000000      -0.06780825      -0.46560544       0.00000000 
     14.34000000      -0.10861583       0.40535980       0.00000000      -0.06780825      -0.46560544       0.00000000 
     14.35000000      -0.10043206       0.37481754       0.00000000      -0.06780825      -0.46560544       0.00000000 
     14.36000000      -0.09256758       0.34546693       0.00000000      -0.06780825      -0.46560544       0.00000000 
     14.37000000      -0.08502261       0.31730870       0.00000000      -0.06780825      -0.46560544       0.00000000 
     14.38000000      -0.07779732       0.29034354       0.00000000      -0.06780825      -0.46560544       0.00000000 
     14.39000000      -0.07089189       0.26457214       0.00000000      -0.06780825      -0.46560544       0.00000000 
     14.40000000      -0.06430650       0.23999512       0.00000000      -0.06780825      -0.46560544       0.00000000 
     14.41000000      -0.05804131       0.21661310       0.00000000      -0.06780825      -0.46560544       0.00000000 
     14.42000000      -0.05209647       0.19442667       0.00000000      -0.06780825      -0.46560544       0.00000000 
     14.43000000      -0.04647214       0.17343637       0.00000000      -0.06780825      -0.46560544       0.00000000 
     14.44000000      -0.04116844       0.15364272       0.00000000      -0.06780825      -0.46560544       0.00000000 
     14.45000000      -0.03618553       0.13504623       0.00000000      -0.06780825      -0.46560544       0.00000000 
     14.46000000      -0.03152351       0.11764734       0.00000000      -0.06780825      -0.46560544       0.00000000 
     14.47000000      -0.02718251       0.10144649       0.00000000      -0.06780825      -0.46560544       0.00000000 
     14.48000000      -0.02316263       0.08644409       0.00000000      -0.06780825      -0.46560544       0.00000000 
     14.49000000      -0.01946397       0.07264051       0.00000000      -0.06780825      -0.46560544       0.00000000 
